<svg width="32" height="33" viewBox="0 0 32 33" fill="none" xmlns="http://www.w3.org/2000/svg">
<g clip-path="url(#clip0_347_2047)">
<path d="M12.0988 21.4126C11.7615 21.3033 11.4367 21.1586 11.13 20.981L11.6115 20.1496C11.8594 20.2932 12.1219 20.4102 12.3945 20.4985L12.0988 21.4126ZM10.2729 20.3521C10.0114 20.112 9.77646 19.8444 9.57224 19.554L10.358 19.0012C10.5225 19.2351 10.7117 19.4507 10.9224 19.6442L10.2729 20.3521ZM9.0571 18.6281C8.91848 18.3032 8.81345 17.9648 8.74365 17.6185L9.68542 17.4287C9.74227 17.7107 9.82777 17.9862 9.94058 18.2509L9.0571 18.6281ZM20.9113 20.2933L21.7718 20.7206C21.9246 20.4126 22.06 20.0963 22.1774 19.7732L21.2743 19.4453C21.1692 19.7345 21.048 20.0176 20.9113 20.2933Z" fill="#1A9D56"/>
<path d="M28.0672 7.02382C28.0672 3.56125 25.2502 0.74428 21.7876 0.74428C18.4866 0.74428 15.7724 3.30448 15.5262 6.54346H10.3446L9.23606 1.82477L4.17594 0.5L3.93262 1.4294L8.43309 2.60763L9.35769 6.54346H5.54311L4.59276 15.6101C4.4156 17.3 4.70158 19.0025 5.41969 20.5336C6.14375 22.0773 7.27593 23.3778 8.69389 24.2944C10.0296 25.159 11.5689 25.6575 13.1579 25.74V28.2605L10.9644 29.4072L11.4095 30.2586L13.6369 29.0941L17.3714 31.0455C17.5803 31.1543 17.7486 31.3274 17.8514 31.5392H9.42481C9.52763 31.3273 9.69592 31.1542 9.90479 31.0454L10.5539 30.706L10.1088 29.8546L9.45965 30.194C9.12582 30.3678 8.84616 30.63 8.65122 30.9519C8.45627 31.2739 8.35354 31.6432 8.35425 32.0196V32.4999H18.9222V32.0196C18.9229 31.6432 18.8201 31.2738 18.6251 30.9519C18.4301 30.6299 18.1503 30.3678 17.8164 30.1941L14.1186 28.2617V25.7404C16.0936 25.6346 17.9955 24.8829 19.5198 23.5962C20.196 23.0253 20.7837 22.3572 21.2638 21.6138L20.4569 21.0922C20.0283 21.7559 19.5037 22.3523 18.9001 22.862C17.4249 24.1073 15.5552 24.7932 13.6355 24.7932C12.0651 24.7932 10.5367 24.3417 9.2155 23.4876C7.94888 22.6687 6.93705 21.5062 6.28953 20.1256C5.64571 18.7529 5.38939 17.2261 5.5483 15.7102L6.4084 7.50412H9.58346L10.4853 11.343H7.1226L6.63116 15.8236C6.49288 17.1423 6.71564 18.4699 7.27529 19.6631C7.83616 20.8589 8.71144 21.8651 9.8066 22.5731C10.9513 23.3131 12.2753 23.7043 13.6355 23.7043C15.2985 23.7043 16.9187 23.1096 18.1977 22.0299C19.9693 20.5345 20.8855 18.2305 20.6485 15.8655L20.183 11.3429H14.6142V12.3036H19.3162L19.6127 15.1858H7.66759L7.98373 12.3036H13.6383V11.3429H11.4722L10.5704 7.50405H20.9047L21.4868 13.3114L21.732 15.7582C21.8282 16.7092 21.7604 17.6696 21.5318 18.5976L22.4646 18.8274C22.7195 17.7921 22.7947 16.7272 22.688 15.6624L22.448 13.2685C23.8991 13.1174 25.2426 12.4709 26.2749 11.4165C27.4307 10.2362 28.0672 8.67613 28.0672 7.02382ZM17.578 21.2959C16.4721 22.2294 15.0719 22.7436 13.6355 22.7436C12.4608 22.7436 11.3171 22.4057 10.3281 21.7664C9.38433 21.1562 8.6294 20.2879 8.14506 19.2553C7.69096 18.2871 7.4928 17.2163 7.56729 16.1466H19.7083C19.8499 18.13 19.0616 20.0436 17.578 21.2959ZM22.9473 7.50418H27.0843C26.988 8.58339 26.5677 9.59683 25.8721 10.4289L22.9473 7.50418ZM25.8708 3.61991C26.5451 4.42743 26.9842 5.43709 27.0837 6.54346H22.9473L25.8708 3.61991ZM22.268 5.8641V1.72768C23.3743 1.82727 24.384 2.26626 25.1915 2.94056L22.268 5.8641ZM21.3073 5.8641L18.3835 2.9403C19.191 2.266 20.2008 1.82669 21.3073 1.72716V5.8641ZM17.7041 3.61972L20.6279 6.54346H16.4902C16.5898 5.43696 17.0298 4.42731 17.7041 3.61972ZM21.9016 7.81712L25.1931 11.1086C24.3842 11.785 23.4018 12.2026 22.3522 12.313L21.9016 7.81712Z" fill="#1A9D56"/>
</g>
<defs>
<clipPath id="clip0_347_2047">
<rect width="32" height="32" fill="white" transform="translate(0 0.5)"/>
</clipPath>
</defs>
</svg>
