<svg width="32" height="33" viewBox="0 0 32 33" fill="none" xmlns="http://www.w3.org/2000/svg">
<g clip-path="url(#clip0_347_2072)">
<path d="M18.9404 9.78394C20.9554 9.78394 22.5947 11.4232 22.5947 13.4382C22.5947 15.4532 20.9554 17.0926 18.9404 17.0926C16.9254 17.0926 15.2861 15.4532 15.2861 13.4382C15.2861 11.4232 16.9254 9.78394 18.9404 9.78394ZM18.9404 16.1509C20.4362 16.1509 21.653 14.934 21.653 13.4382C21.653 11.9425 20.4362 10.7256 18.9404 10.7256C17.4447 10.7256 16.2278 11.9425 16.2278 13.4382C16.2278 14.934 17.4447 16.1509 18.9404 16.1509Z" fill="#1A9D56"/>
<path d="M0.598368 26.4707L2.40804 24.2455C2.44671 24.1966 2.49474 24.1557 2.54932 24.1255C2.6039 24.0952 2.66396 24.0761 2.726 24.0693C2.78803 24.0624 2.85081 24.068 2.91068 24.0856C2.97054 24.1032 3.02631 24.1326 3.07473 24.172C3.12315 24.2114 3.16326 24.26 3.19272 24.315C3.22219 24.37 3.24043 24.4303 3.24637 24.4925C3.25231 24.5546 3.24585 24.6173 3.22734 24.6769C3.20884 24.7365 3.17868 24.7918 3.1386 24.8397L1.32643 27.068L1.32117 27.0743C0.85824 27.6235 0.813055 28.4245 1.21124 29.0223L1.28043 29.1261L1.28574 29.1237C1.30683 29.1142 1.32791 29.1047 1.34899 29.0951L1.36599 29.0875C1.39581 29.0739 1.42564 29.0604 1.45549 29.0469C1.48505 29.0335 1.51459 29.0201 1.54411 29.0066L1.63642 28.9645L1.64667 28.9598C1.72234 28.9253 1.79794 28.8907 1.87348 28.8559C1.95639 28.8178 2.03925 28.7796 2.12205 28.7412L2.23429 28.6892L2.26248 28.6761L2.35929 28.631L2.39367 28.615L2.51442 28.5586L2.54629 28.5437L2.65742 28.4916L2.68298 28.4796L2.81523 28.4175L2.85229 28.4L2.97767 28.3408L2.99698 28.3316L3.1376 28.265L3.1811 28.2444C3.2799 28.1975 3.37863 28.1504 3.47729 28.1031L3.52604 28.0798L3.67591 28.008L3.71229 27.9905L3.84297 27.9275L3.88729 27.9061C3.93922 27.8811 3.99166 27.8557 4.0446 27.83L4.08878 27.8086L4.23128 27.7393L4.2636 27.7236L4.43209 27.6414L4.47847 27.6187C4.53097 27.593 4.58384 27.5671 4.63709 27.541L4.65834 27.5305L4.83265 27.4447L4.88484 27.419C4.94322 27.3901 5.00197 27.3611 5.06115 27.3317L5.08997 27.3174C5.14322 27.291 5.19684 27.2643 5.25072 27.2375L5.30034 27.2128L5.4819 27.1221L5.52521 27.1003C5.57803 27.0739 5.63109 27.0472 5.6844 27.0204L5.72765 26.9987C5.7909 26.9668 5.85452 26.9347 5.91846 26.9023L5.96071 26.881C6.01977 26.8511 6.07909 26.821 6.13871 26.7907L6.16596 26.7768C6.23146 26.7435 6.29733 26.7099 6.36346 26.6761L6.41008 26.6522C6.47789 26.6175 6.54589 26.5827 6.61433 26.5474C10.7657 24.4119 14.1157 22.3635 16.302 20.6238C16.6115 20.3776 16.9224 20.1331 17.2346 19.8904C19.6413 18.0178 22.5339 15.9093 25.0417 14.1193C24.4292 12.898 24.1884 11.5902 24.3282 10.2251C24.3345 10.1635 24.3528 10.1038 24.3821 10.0494C24.4115 9.99496 24.4513 9.94684 24.4992 9.90779C24.5472 9.86874 24.6024 9.83953 24.6617 9.82183C24.7209 9.80412 24.7831 9.79828 24.8446 9.80463C24.9688 9.81737 25.0829 9.87893 25.1617 9.97576C25.2406 10.0726 25.2777 10.1968 25.265 10.321C25.1489 11.4551 25.335 12.5444 25.8184 13.5663C26.238 13.2683 26.6581 12.971 27.0787 12.6745C28.114 11.9447 28.9941 10.9776 29.6243 9.87744L29.7863 9.59463L29.7186 9.47694L29.7026 9.44932L29.6479 9.35457L29.6292 9.32219L29.5758 9.23007L29.5526 9.19013L29.5013 9.10188L29.4763 9.05895L29.4246 8.97045L29.3987 8.92626L29.3464 8.83707L29.3186 8.78988L29.2673 8.7027L29.2374 8.65201C29.2198 8.62214 29.202 8.59213 29.1841 8.56207L29.1568 8.51595L29.1021 8.42382L29.0719 8.3732L29.0191 8.28489L28.9876 8.23239L28.9311 8.13845L28.9036 8.09276C28.8829 8.05833 28.862 8.02383 28.8411 7.98933L28.8182 7.95158C28.7961 7.91514 28.774 7.8787 28.7517 7.84233L28.7311 7.80858L28.6564 7.68652L28.6442 7.66664C28.5851 7.57058 28.5259 7.47477 28.4666 7.37983L28.4647 7.37683C28.4299 7.32119 28.395 7.26561 28.3601 7.21008C28.3376 7.17452 28.3153 7.13902 28.2929 7.10377L28.2651 7.06014C28.2456 7.02952 28.2262 6.99896 28.2068 6.96864L28.1745 6.91846L28.1211 6.83552L28.0863 6.7819L28.0358 6.70446L28.0002 6.65021L27.951 6.57565L27.9154 6.52196C27.8724 6.45733 27.829 6.39291 27.7854 6.32871L27.7486 6.27471L27.7043 6.21034L27.6676 6.15746C27.6529 6.13627 27.6383 6.11546 27.6236 6.09465L27.5885 6.04478C27.574 6.02434 27.5597 6.00434 27.5454 5.9844C27.5338 5.96815 27.5221 5.95178 27.5105 5.93584C27.4963 5.91609 27.4822 5.89696 27.4681 5.87778C27.457 5.86259 27.4458 5.84721 27.4348 5.83234C27.4203 5.81265 27.406 5.79371 27.3917 5.77465C27.3815 5.76103 27.3711 5.74703 27.361 5.73371C27.3453 5.7129 27.3298 5.69303 27.3143 5.67296C27.306 5.66221 27.2976 5.65103 27.2893 5.64053L27.2881 5.63896C26.783 6.30465 26.1961 7.21446 25.7768 8.28032C25.7297 8.39453 25.6395 8.48565 25.5259 8.53403C25.4122 8.58241 25.284 8.58417 25.1691 8.53895C25.0541 8.49372 24.9615 8.40512 24.9112 8.29225C24.861 8.17938 24.8571 8.05128 24.9004 7.93558C25.3825 6.71033 26.063 5.68121 26.6275 4.95359C25.739 4.19097 24.2931 3.32467 23.0695 2.68679C22.9087 2.80434 22.7767 2.95689 22.6834 3.13293C22.5902 3.30897 22.5382 3.5039 22.5314 3.70298L22.4694 5.55447C22.4346 6.59465 21.8967 7.5602 21.0305 8.1372C20.6781 8.37247 20.2827 8.5358 19.867 8.61782L15.5847 9.46725L9.27607 20.1864C8.60738 21.3226 7.37883 21.9964 6.09796 21.9964C5.8969 21.9964 5.69446 21.9793 5.49271 21.9452L4.53178 23.1268C4.45248 23.2221 4.33881 23.2823 4.21543 23.2943C4.09205 23.3062 3.96891 23.2691 3.87274 23.1909C3.77657 23.1127 3.71512 22.9997 3.70173 22.8764C3.68834 22.7532 3.72409 22.6297 3.80122 22.5326L5.7219 20.171L11.2726 10.7206C11.2732 10.7196 11.2739 10.7186 11.2745 10.7175L11.752 9.90456C11.8799 9.68723 12.0506 9.49815 12.2538 9.34882L13.1332 6.98714C13.2792 6.59508 13.5922 6.29971 13.9922 6.17684C14.3922 6.0539 14.817 6.12252 15.158 6.36496L17.6068 8.1062L19.6838 7.6942C19.9784 7.63604 20.2587 7.52027 20.5084 7.35352C20.8115 7.15119 21.062 6.87966 21.2393 6.56135C21.4167 6.24305 21.5157 5.88712 21.5283 5.52297L21.5903 3.67148C21.6026 3.31197 21.7007 2.96062 21.8763 2.64668C22.0519 2.33275 22.3 2.06532 22.5999 1.86667C22.8532 1.69924 23.1794 1.6828 23.4512 1.82386C24.3661 2.29836 26.4862 3.45979 27.6012 4.57103L27.602 4.57172L27.6079 4.57772C27.6416 4.61144 27.6749 4.64563 27.7076 4.68028C27.7245 4.69798 27.7412 4.71579 27.7578 4.73372C27.7966 4.77626 27.8347 4.81945 27.872 4.86328C28.6454 5.78465 29.8573 7.81789 30.7379 9.36138L30.7386 9.36276L30.7394 9.36401L31.2916 10.3463L31.8017 11.1194C32.1576 11.6586 32.0222 12.3715 31.4936 12.7425L31.3362 12.8531L31.8074 13.9935C31.8991 14.214 31.9137 14.459 31.8489 14.6889C31.7841 14.9188 31.6436 15.1201 31.4502 15.2602L30.9063 15.6562C30.7135 15.7971 30.4788 15.8689 30.2402 15.86C30.0015 15.8511 29.7729 15.7619 29.5912 15.6069L28.6165 14.779C28.1278 15.1277 27.6373 15.479 27.1558 15.8252L27.669 17.0668C27.7607 17.2874 27.7753 17.5324 27.7105 17.7622C27.6457 17.9921 27.5052 18.1934 27.3118 18.3335L26.7679 18.7295C26.5751 18.8705 26.3404 18.9423 26.1018 18.9334C25.8631 18.9244 25.6345 18.8352 25.4528 18.6802L24.4237 17.8061C21.7543 19.7589 19.5392 21.4346 17.8389 22.7876C16.8318 23.589 15.5705 24.4459 14.0883 25.3356L14.3432 26.2228C14.4019 26.4252 14.3906 26.6415 14.3111 26.8367C14.2315 27.0318 14.0885 27.1945 13.905 27.2982L13.4437 27.5606C13.2607 27.6652 13.0478 27.705 12.8395 27.6737C12.6311 27.6423 12.4394 27.5415 12.2954 27.3876L11.6636 26.7156C11.1536 26.9917 10.6407 27.2625 10.1249 27.5278L10.3074 28.3357C10.3543 28.5411 10.3306 28.7564 10.2399 28.9466C10.1493 29.1369 9.99719 29.291 9.80813 29.3841L9.33232 29.6196C9.14364 29.7134 8.92883 29.7409 8.72262 29.6975C8.51641 29.6542 8.33085 29.5425 8.19595 29.3806L7.66682 28.7485C7.37551 28.8843 7.1847 28.9523 6.99964 29.0181C6.85789 29.0686 6.72289 29.1166 6.53846 29.1977L6.70164 29.9198C6.74767 30.1214 6.72434 30.3326 6.63543 30.5193C6.54652 30.706 6.39723 30.8573 6.21171 30.9486L5.75377 31.1752C5.56865 31.2673 5.35787 31.2943 5.15553 31.2517C4.95318 31.2092 4.77109 31.0997 4.63872 30.9408L4.09541 30.2917C3.59198 30.5108 3.08686 30.726 2.5801 30.9373C2.02467 31.1686 1.37905 30.9729 1.0453 30.472L0.717054 29.9793L0.716928 29.979L0.715992 29.9776L0.427244 29.5441C-0.200752 28.6013 -0.130314 27.338 0.598368 26.4707ZM13.176 9.94506C13.1477 9.95075 13.12 9.958 13.0927 9.96625C13.0822 9.96944 13.0719 9.97325 13.0615 9.97681C13.0172 9.99169 12.9742 10.0102 12.9329 10.0321C12.9192 10.0392 12.9055 10.0464 12.8921 10.0542C12.7859 10.1166 12.6921 10.1995 12.618 10.2995C12.5986 10.3256 12.5805 10.3529 12.5639 10.3812L12.4622 10.5544L12.559 10.5644C12.6813 10.5797 12.7928 10.6423 12.8695 10.7387C12.9461 10.8352 12.9819 10.9579 12.9692 11.0805C12.9564 11.2031 12.8961 11.3158 12.8013 11.3944C12.7064 11.473 12.5844 11.5113 12.4616 11.5011L11.9382 11.4466L11.1171 12.8444L11.2176 12.8549C11.2797 12.8606 11.3399 12.8786 11.395 12.9078C11.45 12.937 11.4987 12.9768 11.5382 13.0249C11.5778 13.0731 11.6074 13.1286 11.6253 13.1882C11.6432 13.2479 11.6491 13.3105 11.6427 13.3725C11.6362 13.4345 11.6175 13.4945 11.5877 13.5492C11.5579 13.6039 11.5175 13.6521 11.4689 13.6911C11.4203 13.7301 11.3644 13.759 11.3046 13.7762C11.2447 13.7935 11.182 13.7987 11.1201 13.7915L10.5931 13.7366L9.69 15.274L9.78775 15.2842C9.91004 15.2995 10.0215 15.362 10.0982 15.4585C10.1748 15.555 10.2106 15.6777 10.1979 15.8003C10.1851 15.9228 10.1249 16.0355 10.03 16.1142C9.93506 16.1928 9.81312 16.2311 9.69031 16.2208L9.166 16.1663L8.22251 17.7726L8.31988 17.7827C8.44217 17.798 8.55362 17.8605 8.6303 17.957C8.70698 18.0535 8.74278 18.1762 8.73003 18.2988C8.71728 18.4213 8.65699 18.534 8.56209 18.6127C8.4672 18.6913 8.34526 18.7296 8.22245 18.7193L7.69857 18.6648L6.51583 20.6784C6.50377 20.699 6.49014 20.7186 6.47515 20.7371L6.21896 21.0521C7.12833 21.0125 7.98782 20.5184 8.46457 19.7084L14.3477 9.71232L13.179 9.94413C13.178 9.94453 13.177 9.94484 13.176 9.94506ZM14.6122 7.13227C14.5631 7.09712 14.5065 7.07382 14.447 7.0642C14.3874 7.05458 14.3264 7.05891 14.2687 7.07683C14.211 7.09437 14.158 7.12505 14.1141 7.16648C14.0702 7.2079 14.0365 7.25894 14.0156 7.31558L13.4114 8.9382L16.3361 8.35807L14.6122 7.13227ZM1.82924 29.95L1.82936 29.9503C1.87059 30.0119 1.93189 30.0573 2.00283 30.0787C2.07377 30.1002 2.14996 30.0964 2.21842 30.068C2.56342 29.9244 3.12004 29.6899 3.81285 29.3878C4.13828 29.246 4.52435 29.3369 4.75191 29.6088L5.35065 30.3241L5.77965 30.1118L5.59534 29.2961C5.51215 28.9278 5.70052 28.5459 6.04321 28.3881C6.32046 28.2604 6.50521 28.1946 6.68389 28.131C6.87377 28.0635 7.05314 27.9996 7.35501 27.8543C7.51631 27.7765 7.69894 27.7548 7.87396 27.7927C8.04897 27.8305 8.20635 27.9257 8.32113 28.0631L8.91469 28.7757L9.38894 28.5433L9.183 27.6318C9.14366 27.4577 9.16332 27.2755 9.23889 27.1138C9.31446 26.9521 9.44165 26.8201 9.60044 26.7387C10.1726 26.4452 10.7412 26.145 11.3063 25.8382C11.4626 25.7532 11.6426 25.7223 11.8182 25.7504C11.9939 25.7785 12.1553 25.864 12.2772 25.9935L12.9781 26.7422L13.4382 26.483L13.1541 25.4946C13.0533 25.1442 13.2019 24.7686 13.5154 24.5812C15.0005 23.6937 16.2579 22.8423 17.2526 22.0509C18.9814 20.6751 21.2367 18.9697 23.9555 16.982C24.1013 16.8749 24.279 16.8203 24.4597 16.8269C24.6405 16.8336 24.8136 16.9011 24.9512 17.0186L26.0625 17.9626C26.0834 17.9805 26.1097 17.9907 26.1372 17.9917C26.1646 17.9928 26.1916 17.9845 26.2138 17.9683L26.7577 17.5723C26.7799 17.5561 26.7961 17.533 26.8035 17.5066C26.811 17.4801 26.8093 17.4519 26.7988 17.4266L26.2442 16.0847C26.1744 15.9172 26.1635 15.731 26.2132 15.5564C26.263 15.3819 26.3705 15.2294 26.5181 15.1239C27.0636 14.7315 27.6099 14.3402 28.157 13.9501C28.3028 13.846 28.4792 13.7936 28.6582 13.8012C28.8372 13.8089 29.0085 13.8761 29.1449 13.9922L30.2009 14.8892C30.2218 14.907 30.2481 14.9172 30.2755 14.9183C30.303 14.9193 30.33 14.911 30.3521 14.8948L30.8961 14.4988C30.9183 14.4827 30.9344 14.4596 30.9419 14.4331C30.9493 14.4067 30.9477 14.3785 30.9371 14.3532L30.4239 13.1115C30.279 12.761 30.3946 12.3639 30.7048 12.1457L30.9525 11.9717C31.0046 11.9355 31.0404 11.8802 31.0522 11.8179C31.064 11.7555 31.0509 11.691 31.0156 11.6382L30.4962 10.8511C30.49 10.8417 30.4842 10.8322 30.4787 10.8224L30.3233 10.5459L30.3149 10.5593C30.2968 10.589 30.2781 10.6182 30.2597 10.6477C30.2328 10.6909 30.206 10.7341 30.1784 10.7769C30.1586 10.8077 30.138 10.8381 30.1178 10.8687C30.0908 10.9095 30.0638 10.9503 30.0362 10.9907C30.0148 11.0219 29.9929 11.0528 29.9712 11.0837C29.9437 11.1229 29.9162 11.1622 29.8881 11.201C29.8656 11.2321 29.8426 11.2629 29.8197 11.2937C29.7914 11.3317 29.7631 11.3697 29.7344 11.4074C29.7108 11.4382 29.6869 11.4687 29.6629 11.4992C29.61 11.567 29.5561 11.634 29.5011 11.7001C29.4463 11.7664 29.3906 11.8319 29.3341 11.8967C29.2211 12.0261 29.1047 12.1527 28.9851 12.2761C28.9522 12.3099 28.9191 12.3435 28.8857 12.3768C28.8682 12.3944 28.8511 12.4124 28.8334 12.4297C28.8236 12.4395 28.8134 12.4489 28.8035 12.4586C28.7695 12.4918 28.735 12.5246 28.7005 12.5574C28.6728 12.5837 28.6453 12.61 28.6173 12.636C28.5818 12.6689 28.5459 12.7012 28.51 12.7335C28.4822 12.7585 28.4546 12.7837 28.4265 12.8084C28.3894 12.841 28.3518 12.873 28.3141 12.905C28.2865 12.9286 28.2591 12.9524 28.2313 12.9756C28.1916 13.0086 28.1514 13.0409 28.1113 13.0733C28.0848 13.0946 28.0586 13.1163 28.032 13.1373C27.9871 13.1727 27.9415 13.2073 27.896 13.2419C27.8735 13.259 27.8513 13.2766 27.8286 13.2935C27.7602 13.3446 27.691 13.3948 27.6213 13.444C27.0583 13.841 26.4962 14.2392 25.9351 14.6387C23.0319 16.7063 19.5409 19.2499 16.8883 21.3606C14.0647 23.6074 9.97394 25.8782 7.03952 27.3876C6.65074 27.5876 6.26082 27.7853 5.86977 27.9808C5.66987 28.0809 5.46966 28.1804 5.26915 28.2793C4.8791 28.4718 4.48803 28.6623 4.09597 28.8507C3.798 28.9939 3.49948 29.1359 3.20041 29.2768C2.8777 29.4288 2.55425 29.5793 2.23011 29.7282C2.19567 29.744 2.16223 29.7594 2.12948 29.7743C2.01148 29.8284 1.90405 29.8773 1.80936 29.9202L1.82924 29.95Z" fill="#1A9D56"/>
</g>
<defs>
<clipPath id="clip0_347_2072">
<rect width="32" height="32" fill="white" transform="matrix(-1 0 0 1 32 0.5)"/>
</clipPath>
</defs>
</svg>
