<svg width="32" height="33" viewBox="0 0 32 33" fill="none" xmlns="http://www.w3.org/2000/svg">
<g clip-path="url(#clip0_347_2054)">
<mask id="mask0_347_2054" style="mask-type:luminance" maskUnits="userSpaceOnUse" x="0" y="0" width="32" height="33">
<path d="M0 0.500097H31.9999V32.5H0V0.500097Z" fill="white"/>
</mask>
<g mask="url(#mask0_347_2054)">
<path d="M22.3294 5.11304C18.962 2.60848 14.7791 1.1248 10.247 1.1248L9.10107 4.68041" stroke="#1A9D56" stroke-width="1.5" stroke-miterlimit="10" stroke-linecap="round" stroke-linejoin="round"/>
<path d="M26.8292 22.2727L30.4123 21.1356C30.4123 16.6233 28.9072 12.4599 26.3682 9.11262" stroke="#1A9D56" stroke-width="1.5" stroke-miterlimit="10" stroke-linecap="round" stroke-linejoin="round"/>
<path d="M25.5391 16.5418C26.1585 18.2693 26.5891 20.1799 26.8291 22.2723L25.2191 22.7836V27.4811C25.2191 27.9161 25.0409 28.3105 24.7535 28.5961C24.4547 28.8926 24.0507 29.0586 23.6298 29.058C22.7516 29.058 22.0398 28.3517 22.0398 27.4811V23.7924L17.5066 25.2311V29.8961C17.5066 31.0074 16.5835 31.9049 15.4567 31.8742C14.371 31.8449 13.5192 30.933 13.5192 29.8549V26.4968L8.51293 28.0855L5.70857 28.9754L3.9242 29.5417L3.56857 29.6549C2.3942 30.0274 1.28671 28.928 1.6617 27.763L2.34358 25.6468L3.78982 21.1599L5.63107 15.4467L9.101 4.68057C15.661 5.42182 20.4497 7.99056 23.4241 12.3437" stroke="#1A9D56" stroke-width="1.5" stroke-miterlimit="10" stroke-linecap="round" stroke-linejoin="round"/>
<path d="M15.3109 13.2993C14.0774 14.5233 12.0776 14.5233 10.8441 13.2993C9.61057 12.0752 9.61057 10.0907 10.8441 8.86668C12.0776 7.64268 14.0774 7.64268 15.3109 8.86668C16.5444 10.0907 16.5444 12.0752 15.3109 13.2993Z" stroke="#1A9D56" stroke-width="1.5" stroke-miterlimit="10" stroke-linecap="round" stroke-linejoin="round"/>
<path d="M14.991 25.6267C13.8327 26.7761 11.9547 26.7761 10.7965 25.6267C9.63816 24.4773 9.63816 22.6137 10.7965 21.4643C11.9547 20.3148 13.8327 20.3148 14.991 21.4643C16.1493 22.6137 16.1493 24.4773 14.991 25.6267Z" stroke="#1A9D56" stroke-width="1.5" stroke-miterlimit="10" stroke-linecap="round" stroke-linejoin="round"/>
<path d="M18.8548 16.8816C17.8217 15.8146 16.1124 15.7936 15.0371 16.8347L18.7786 20.6987C19.8538 19.6576 19.888 17.9486 18.8548 16.8816Z" stroke="#1A9D56" stroke-width="1.5" stroke-miterlimit="10" stroke-linecap="round" stroke-linejoin="round"/>
<path d="M6.9016 20.441C6.05998 21.2762 4.8448 21.516 3.78955 21.1601L5.63117 15.4465C6.11036 15.5883 6.54675 15.847 6.90104 16.1995C8.08154 17.3709 8.0821 19.2696 6.9016 20.441Z" stroke="#1A9D56" stroke-width="1.5" stroke-miterlimit="10" stroke-linecap="round" stroke-linejoin="round"/>
<path d="M25.5391 16.5419C25.0954 16.9358 24.5224 17.1529 23.929 17.1519C22.5872 17.1519 21.499 16.0637 21.499 14.7219C21.499 13.5525 22.3241 12.5762 23.4241 12.3437C24.2797 13.5956 24.9853 14.9956 25.5391 16.5419Z" stroke="#1A9D56" stroke-width="1.5" stroke-miterlimit="10" stroke-linecap="round" stroke-linejoin="round"/>
<path d="M8.51315 28.0855L5.70878 28.9754L3.92441 29.5417C3.83521 29.2862 3.78978 29.0174 3.79004 28.7468C3.79004 27.4174 4.86754 26.3393 6.19747 26.3393C7.29753 26.3393 8.22559 27.0774 8.51315 28.0855Z" stroke="#1A9D56" stroke-width="1.5" stroke-miterlimit="10" stroke-linecap="round" stroke-linejoin="round"/>
</g>
</g>
<defs>
<clipPath id="clip0_347_2054">
<rect width="32" height="32" fill="white" transform="translate(0 0.5)"/>
</clipPath>
</defs>
</svg>
