<svg width="32" height="33" viewBox="0 0 32 33" fill="none" xmlns="http://www.w3.org/2000/svg">
<path d="M30 17.8819V15C30 14.8674 29.9473 14.7402 29.8536 14.6464C29.7598 14.5527 29.6326 14.5 29.5 14.5H26.9854C26.7594 6.66337 23.9014 4.66669 23.7774 4.584C23.7649 4.57581 23.7524 4.56812 23.7394 4.56106L18.2394 1.56106C18.166 1.521 18.0837 1.5 18 1.5H10C9.91634 1.5 9.83401 1.521 9.76056 1.56106L4.26056 4.56106C4.24756 4.56812 4.23494 4.57581 4.22262 4.584C4.09106 4.67169 1 6.83206 1 15.5C1 15.6326 1.05268 15.7598 1.14645 15.8536C1.24021 15.9473 1.36739 16 1.5 16H5.5V28C5.5 28.1326 5.55268 28.2598 5.64645 28.3536C5.74021 28.4473 5.86739 28.5 6 28.5H12V31C12 31.1326 12.0527 31.2598 12.1464 31.3536C12.2402 31.4473 12.3674 31.5 12.5 31.5H20.5C20.6115 31.5 20.7198 31.4627 20.8077 31.3941C20.8956 31.3255 20.958 31.2294 20.9851 31.1213L21.5 29.0616L22.0149 31.1213C22.042 31.2294 22.1044 31.3255 22.1923 31.3941C22.2802 31.4627 22.3885 31.5 22.5 31.5H30.5C30.6326 31.5 30.7598 31.4473 30.8536 31.3536C30.9473 31.2598 31 31.1326 31 31V20C31 19.9224 30.9819 19.8458 30.9472 19.7764L30 17.8819ZM14 17.5V15.5H15V17.5H14ZM16 17.5V15.5H17V17.5H16ZM18 15.5H19V17.5H18V15.5ZM20 15.5H21V17.5H20V15.5ZM5.19831 5.18869L7.83456 3.75069C8.3885 4.51675 9.27394 5.36519 10.6596 5.91488L6.05438 8.37113C5.78644 6.66163 5.44956 5.70537 5.19831 5.18869ZM12.0657 5.30119C10.3486 4.92056 9.32194 4.05419 8.72125 3.26706L9.8375 2.65806C10.3479 3.31988 11.5942 4.5 14 4.5C16.4058 4.5 17.6521 3.31988 18.1625 2.65806L19.279 3.26706C18.6781 4.05419 17.6517 4.92056 15.9344 5.30119C15.2987 5.43744 14.6501 5.5041 14 5.5C13.3499 5.50407 12.7013 5.43741 12.0657 5.30119ZM11.0514 2.5H16.9482C16.4136 2.97238 15.4843 3.5 14 3.5C12.5157 3.5 11.5857 2.97194 11.0514 2.5ZM20.1654 3.75069L22.8012 5.18819C22.6493 5.49944 22.4661 5.97006 22.2869 6.66687C22.1562 7.17521 22.0416 7.74285 21.9432 8.36981L17.3402 5.91488C18.7261 5.36513 19.6116 4.51675 20.1654 3.75069ZM22 15.5H23V17.5H22V15.5ZM24 15.5H25V17.5H24V15.5ZM26 15.5H27V17.5H26V15.5ZM28 15.5H29V17.5H28V15.5ZM24.5562 7.29375C25.6057 9.48981 25.9194 12.3364 25.9851 14.5H22.5068C22.5795 9.02306 23.2479 6.68931 23.6202 5.80806C23.9961 6.26 24.3109 6.75954 24.5562 7.29375ZM3.40119 7.38381C3.75975 6.6125 4.11981 6.10987 4.38163 5.80562C4.57031 6.2699 4.7181 6.74977 4.82331 7.23975C5.12012 8.52831 5.4715 10.9092 5.49831 15H2.00362C2.061 11.0816 2.7875 8.70331 3.40119 7.38381ZM6.5 27.5V15.5C6.5 12.9219 6.37719 10.9437 6.1985 9.42762L12.0335 6.3155C12.6814 6.44099 13.3401 6.50278 14 6.5C14.66 6.5028 15.3186 6.44098 15.9665 6.31544L21.7991 9.42638C21.6293 10.8694 21.5315 12.5652 21.5066 14.5H13.5C13.3674 14.5 13.2402 14.5527 13.1464 14.6464C13.0527 14.7402 13 14.8674 13 15V17.8819L12.0528 19.7764C12.0181 19.8458 12 19.9224 12 20V27.5H6.5ZM13 20.1181L13.809 18.5H15.1169L14.0712 20.2428C14.0246 20.3205 14 20.4094 14 20.5V30.5H13V20.1181ZM21.9851 26.8787C21.958 26.7706 21.8956 26.6746 21.8077 26.6059C21.7198 26.5373 21.6115 26.5001 21.5 26.5001C21.3885 26.5001 21.2802 26.5373 21.1923 26.6059C21.1044 26.6746 21.042 26.7706 21.0149 26.8787L20.1096 30.5H15V20.6385L16.2831 18.5H26.7169L28 20.6385V30.5H22.8904L21.9851 26.8787ZM30 30.5H29V20.5C29 20.4094 28.9754 20.3205 28.9287 20.2428L27.8831 18.5H29.191L30 20.1181V30.5Z" fill="#1A9D56"/>
</svg>
