<svg width="26" height="33" viewBox="0 0 26 33" fill="none" xmlns="http://www.w3.org/2000/svg">
<path d="M9.09875 21.4126C8.76148 21.3033 8.43674 21.1586 8.12996 20.981L8.61147 20.1496C8.85944 20.2932 9.12192 20.4102 9.39453 20.4985L9.09875 21.4126ZM7.27287 20.3521C7.01136 20.112 6.77646 19.8444 6.57224 19.554L7.35799 19.0012C7.52252 19.2351 7.71174 19.4507 7.92238 19.6442L7.27287 20.3521ZM6.0571 18.6281C5.91848 18.3032 5.81345 17.9648 5.74365 17.6185L6.68542 17.4287C6.74227 17.7107 6.82777 17.9862 6.94058 18.2509L6.0571 18.6281ZM17.9113 20.2933L18.7718 20.7206C18.9246 20.4126 19.06 20.0963 19.1774 19.7732L18.2743 19.4453C18.1692 19.7345 18.048 20.0176 17.9113 20.2933Z" fill="#1A9D56"/>
<path d="M25.0672 7.02382C25.0672 3.56125 22.2502 0.74428 18.7876 0.74428C15.4866 0.74428 12.7724 3.30448 12.5262 6.54346H7.34461L6.23606 1.82477L1.17594 0.5L0.932617 1.4294L5.43309 2.60763L6.35769 6.54346H2.54311L1.59276 15.6101C1.4156 17.3 1.70158 19.0025 2.41969 20.5336C3.14375 22.0773 4.27593 23.3778 5.69389 24.2944C7.02957 25.159 8.56893 25.6575 10.1579 25.74V28.2605L7.9644 29.4072L8.40954 30.2586L10.6369 29.0941L14.3714 31.0455C14.5803 31.1543 14.7486 31.3274 14.8514 31.5392H6.42481C6.52763 31.3273 6.69592 31.1542 6.90479 31.0454L7.55392 30.706L7.10878 29.8546L6.45965 30.194C6.12582 30.3678 5.84616 30.63 5.65122 30.9519C5.45627 31.2739 5.35354 31.6432 5.35425 32.0196V32.4999H15.9222V32.0196C15.9229 31.6432 15.8201 31.2738 15.6251 30.9519C15.4301 30.6299 15.1503 30.3678 14.8164 30.1941L11.1186 28.2617V25.7404C13.0936 25.6346 14.9955 24.8829 16.5198 23.5962C17.196 23.0253 17.7837 22.3572 18.2638 21.6138L17.4569 21.0922C17.0283 21.7559 16.5037 22.3523 15.9001 22.862C14.4249 24.1073 12.5552 24.7932 10.6355 24.7932C9.06507 24.7932 7.53669 24.3417 6.2155 23.4876C4.94888 22.6687 3.93705 21.5062 3.28953 20.1256C2.64571 18.7529 2.38939 17.2261 2.5483 15.7102L3.4084 7.50412H6.58346L7.48532 11.343H4.1226L3.63116 15.8236C3.49288 17.1423 3.71564 18.4699 4.27529 19.6631C4.83616 20.8589 5.71144 21.8651 6.8066 22.5731C7.95127 23.3131 9.27527 23.7043 10.6355 23.7043C12.2985 23.7043 13.9187 23.1096 15.1977 22.0299C16.9693 20.5345 17.8855 18.2305 17.6485 15.8655L17.183 11.3429H11.6142V12.3036H16.3162L16.6127 15.1858H4.66759L4.98373 12.3036H10.6383V11.3429H8.47224L7.57038 7.50405H17.9047L18.4868 13.3114L18.732 15.7582C18.8282 16.7092 18.7604 17.6696 18.5318 18.5976L19.4646 18.8274C19.7195 17.7921 19.7947 16.7272 19.688 15.6624L19.448 13.2685C20.8991 13.1174 22.2426 12.4709 23.2749 11.4165C24.4307 10.2362 25.0672 8.67613 25.0672 7.02382ZM14.578 21.2959C13.4721 22.2294 12.0719 22.7436 10.6355 22.7436C9.46076 22.7436 8.31711 22.4057 7.32815 21.7664C6.38433 21.1562 5.6294 20.2879 5.14506 19.2553C4.69096 18.2871 4.4928 17.2163 4.56729 16.1466H16.7083C16.8499 18.13 16.0616 20.0436 14.578 21.2959ZM19.9473 7.50418H24.0843C23.988 8.58339 23.5677 9.59683 22.8721 10.4289L19.9473 7.50418ZM22.8708 3.61991C23.5451 4.42743 23.9842 5.43709 24.0837 6.54346H19.9473L22.8708 3.61991ZM19.268 5.8641V1.72768C20.3743 1.82727 21.384 2.26626 22.1915 2.94056L19.268 5.8641ZM18.3073 5.8641L15.3835 2.9403C16.191 2.266 17.2008 1.82669 18.3073 1.72716V5.8641ZM14.7041 3.61972L17.6279 6.54346H13.4902C13.5898 5.43696 14.0298 4.42731 14.7041 3.61972ZM18.9016 7.81712L22.1931 11.1086C21.3842 11.785 20.4018 12.2026 19.3522 12.313L18.9016 7.81712Z" fill="#1A9D56"/>
</svg>
